<svg xmlns="http://www.w3.org/2000/svg" xmlns:xlink="http://www.w3.org/1999/xlink" width="1920" height="814" viewBox="0 0 1920 814"><defs><pattern id="a" preserveAspectRatio="xMidYMid slice" width="100%" height="100%" viewBox="0 0 1134 611"><image width="1134" height="611" xlink:href="Group92-image.jpg"/></pattern><filter id="b" x="978" y="323" width="323" height="84" filterUnits="userSpaceOnUse"><feOffset dy="3" input="SourceAlpha"/><feGaussianBlur stdDeviation="3" result="c"/><feFlood flood-opacity="0.62"/><feComposite operator="in" in2="c"/><feComposite in="SourceGraphic"/></filter><filter id="d" x="978" y="499" width="587" height="84" filterUnits="userSpaceOnUse"><feOffset dy="3" input="SourceAlpha"/><feGaussianBlur stdDeviation="3" result="e"/><feFlood flood-opacity="0.62"/><feComposite operator="in" in2="e"/><feComposite in="SourceGraphic"/></filter><filter id="f" x="978" y="411" width="412" height="84" filterUnits="userSpaceOnUse"><feOffset dy="3" input="SourceAlpha"/><feGaussianBlur stdDeviation="3" result="g"/><feFlood flood-opacity="0.62"/><feComposite operator="in" in2="g"/><feComposite in="SourceGraphic"/></filter></defs><g transform="translate(0 -42)"><rect width="1920" height="814" transform="translate(0 42)" fill="url(#a)"/><g transform="translate(433 284)"><image width="344" height="487" xlink:href="Group92-image2.png"/></g><rect width="361" height="70" transform="translate(960 369)" fill="#06083b" opacity="0.35"/><g transform="matrix(1, 0, 0, 1, 0, 42)" filter="url(#b)"><text transform="translate(987 382)" fill="#e0ba6a" font-size="49" font-family="Oswald-Medium, Oswald" font-weight="500" letter-spacing="0.07em"><tspan x="0" y="0">LOVE CRICKET</tspan></text></g><rect width="617" height="70" transform="translate(960 545)" fill="#06083b" opacity="0.35"/><g transform="matrix(1, 0, 0, 1, 0, 42)" filter="url(#d)"><text transform="translate(987 558)" fill="#e0ba6a" font-size="49" font-family="Oswald-Medium, Oswald" font-weight="500" letter-spacing="0.07em"><tspan x="0" y="0">WITH THE GAME YOU LOVE</tspan></text></g><rect width="446" height="70" transform="translate(960 457)" fill="#06083b" opacity="0.35"/><g transform="matrix(1, 0, 0, 1, 0, 42)" filter="url(#f)"><text transform="translate(987 470)" fill="#fff" font-size="49" font-family="Oswald-Medium, Oswald" font-weight="500" letter-spacing="0.07em"><tspan x="0" y="0">SPEND MORE TIME</tspan></text></g></g></svg>